<svg xmlns="http://www.w3.org/2000/svg" width="24" height="24" viewBox="0 0 24 24" fill="none" stroke="currentColor" stroke-width="2" stroke-linecap="round" stroke-linejoin="round" class="feather feather-github"><path d="M16 22.027V18.13a3.37 3.37 0 0 0-.937-2.641c3.125-.355 6.41-1.523 6.41-6.882 0-1.521-.532-2.764-1.405-3.732a5.048 5.048 0 0 0-.091-3.707S19.091.929 16 2.675a12.59 12.59 0 0 0-8 0C4.909.929 4.022 1.168 4.022 1.168a5.048 5.048 0 0 0-.091 3.707c-.874.968-1.405 2.211-1.405 3.732 0 5.34 3.278 6.508 6.39 6.882a3.37 3.37 0 0 0-.937 2.628v3.898"></path><path d="M9 19c-4.336 1.457-4.336-2.429-6-3"></path></svg>
