<?xml version="1.0" encoding="UTF-8"?>
<svg version="1.1" xmlns="http://www.w3.org/2000/svg" width="950" height="980">
<path d="M0 0 C1.16292068 -0.00570007 2.32584137 -0.01140015 3.52400208 -0.01727295 C5.97359326 -0.02665369 8.42319666 -0.03322907 10.87280273 -0.03710938 C14.52807094 -0.04673293 18.18275569 -0.07779077 21.83789062 -0.109375 C42.22235597 -0.20124264 62.39106286 1.40415855 82.39453125 5.453125 C83.44809814 5.66219482 84.50166504 5.87126465 85.5871582 6.08666992 C143.82883837 18.01631254 198.50758048 43.75885834 245.39453125 80.203125 C246.20535156 80.8321875 247.01617188 81.46125 247.8515625 82.109375 C270.69657443 100.11965904 292.52197979 120.1798035 310.39453125 143.203125 C310.85859375 143.78932617 311.32265625 144.37552734 311.80078125 144.97949219 C347.89555001 190.58136522 372.42025949 242.8283523 382.39453125 300.203125 C382.64444824 301.56727539 382.64444824 301.56727539 382.89941406 302.95898438 C388.52791083 334.77222699 387.49898325 370.3961641 382.39453125 402.203125 C382.2229248 403.30060059 382.05131836 404.39807617 381.87451172 405.52880859 C376.58549814 438.48706749 367.07226286 469.79448676 353.39453125 500.203125 C353.06485352 500.94755859 352.73517578 501.69199219 352.39550781 502.45898438 C335.09679561 541.41182058 307.39640855 582.10140665 274.359375 609.55078125 C271.91769337 611.60412386 269.60526147 613.78011619 267.26953125 615.953125 C237.95380121 642.61111029 202.30971843 664.03250255 165.39453125 678.203125 C164.47833008 678.55826172 163.56212891 678.91339844 162.61816406 679.27929688 C122.37619783 694.73328324 78.64911069 704.39130885 35.39453125 705.203125 C34.35248535 705.22890625 33.31043945 705.2546875 32.23681641 705.28125 C-1.64146267 706.02206244 -35.56050521 703.5289401 -69.17285156 699.38574219 C-69.8970076 699.299375 -70.62116364 699.21300781 -71.36726379 699.12402344 C-73.29384061 698.89315167 -75.21913173 698.6516189 -77.14428711 698.40917969 C-83.53095628 698.02896182 -88.06727972 699.08628387 -93.5703125 702.30859375 C-95.24601318 703.27841187 -95.24601318 703.27841187 -96.95556641 704.26782227 C-98.15149121 704.97521354 -99.34728881 705.68281991 -100.54296875 706.390625 C-101.79545993 707.12074271 -103.04856199 707.84981342 -104.30224609 708.57788086 C-107.47837938 710.42564526 -110.64690733 712.28603328 -113.8135376 714.15002441 C-116.49353538 715.72503316 -119.18029238 717.2883568 -121.8671875 718.8515625 C-125.78538147 721.13191579 -129.70044452 723.41749869 -133.61328125 725.70703125 C-139.92923252 729.39810399 -146.2661987 733.05228816 -152.60546875 736.703125 C-160.95349384 741.51157258 -169.28790107 746.34218211 -177.60546875 751.203125 C-185.88323951 756.03988929 -194.17487841 760.85178256 -202.48046875 765.640625 C-204.0888562 766.5680249 -204.0888562 766.5680249 -205.72973633 767.51416016 C-211.31809453 770.73510866 -216.90843029 773.95259907 -222.5 777.16796875 C-224.76443602 778.47115765 -227.02876081 779.77453985 -229.29296875 781.078125 C-230.37626465 781.70138672 -231.45956055 782.32464844 -232.57568359 782.96679688 C-239.24442263 786.81276203 -245.87919462 790.70760162 -252.4206543 794.76708984 C-256.39401061 797.203125 -256.39401061 797.203125 -258.60546875 797.203125 C-258.60324814 796.3076744 -258.60102753 795.4122238 -258.59873962 794.48963833 C-258.54744583 772.69774677 -258.5402608 750.90622957 -258.5821228 729.11431026 C-258.60130428 718.57582727 -258.60557624 708.03773262 -258.57470703 697.49926758 C-258.54783803 688.31350832 -258.54898618 679.1282521 -258.58372784 669.94251162 C-258.60114565 665.07886707 -258.60456737 660.2161236 -258.57443237 655.3525219 C-258.5464993 650.77282975 -258.55607974 646.19473529 -258.59420586 641.61513138 C-258.60161314 639.93617782 -258.59541426 638.25709943 -258.57444954 636.57826042 C-258.20620732 627.70675229 -258.20620732 627.70675229 -261.34449768 619.70883369 C-263.34860229 617.93454296 -265.31570524 616.57634487 -267.60546875 615.203125 C-268.65790967 614.30433551 -269.68988976 613.38078137 -270.6953125 612.4296875 C-271.63503906 611.57117188 -272.57476562 610.71265625 -273.54296875 609.828125 C-281.34148728 602.66848557 -288.74183256 595.26894594 -295.60546875 587.203125 C-296.39308594 586.30464844 -297.18070312 585.40617188 -297.9921875 584.48046875 C-361.19478267 511.88177801 -386.5620481 414.97988602 -380.13671875 320.12109375 C-376.7563708 280.69633111 -365.19382158 241.06974211 -346.61621094 206.11425781 C-345.53366647 204.06735971 -344.47874953 202.00756901 -343.42578125 199.9453125 C-338.65556075 190.67057569 -333.47499985 181.82278028 -327.60546875 173.203125 C-327.1583252 172.54344727 -326.71118164 171.88376953 -326.25048828 171.20410156 C-316.4975409 156.89442182 -305.84667243 143.46484021 -294.02734375 130.80859375 C-291.95847687 128.58289341 -289.95687317 126.32294117 -287.98046875 124.015625 C-282.34142263 117.52870321 -276.19604711 111.57675454 -269.66796875 105.9921875 C-268.24991724 104.76213524 -266.85499197 103.50507123 -265.48046875 102.2265625 C-257.64627521 94.94817323 -249.16825429 88.58702851 -240.60546875 82.203125 C-239.87763184 81.65575684 -239.14979492 81.10838867 -238.39990234 80.54443359 C-171.62568938 30.45260264 -83.63701116 0.33025782 0 0 Z M-36.60546875 65.203125 C-38.39863525 65.46053467 -38.39863525 65.46053467 -40.22802734 65.72314453 C-76.64541443 71.14433066 -112.45442796 81.02266182 -145.60546875 97.203125 C-147.39313765 98.05227603 -149.1809017 98.90122676 -150.96875 99.75 C-169.21210057 108.52842955 -186.45394771 118.99006444 -202.60546875 131.203125 C-203.18345215 131.63834473 -203.76143555 132.07356445 -204.35693359 132.52197266 C-211.89327913 138.23020494 -219.02735801 144.24427337 -225.92578125 150.70703125 C-228.19657325 152.82224421 -230.50075918 154.87033916 -232.85546875 156.890625 C-239.66187726 162.8092411 -245.81241822 169.2989307 -251.60546875 176.203125 C-252.0658252 176.7496875 -252.52618164 177.29625 -253.00048828 177.859375 C-300.8662428 234.929501 -323.67934111 305.089962 -317.85546875 379.515625 C-312.57151551 437.70660641 -290.24385193 492.73395203 -253.60546875 538.203125 C-252.52072266 539.57597656 -252.52072266 539.57597656 -251.4140625 540.9765625 C-228.12748363 570.12673891 -228.12748363 570.12673891 -199.00971985 592.65863037 C-195.3068838 596.57745833 -195.90091197 600.3624244 -195.94604492 605.57128906 C-195.93556122 606.62525879 -195.92507751 607.67922852 -195.91427612 608.76513672 C-195.88546759 612.24997181 -195.89182484 615.73381688 -195.8984375 619.21875 C-195.88532607 621.63443247 -195.87002357 624.05010396 -195.85261536 626.46575928 C-195.81268812 632.82472491 -195.80256987 639.18340426 -195.79858398 645.54248047 C-195.7892672 652.03101326 -195.75186274 658.51937681 -195.71679688 665.0078125 C-195.65214219 677.73956822 -195.61801302 690.47121678 -195.60546875 703.203125 C-188.84240741 698.91775909 -182.10622208 694.5965034 -175.41796875 690.1953125 C-174.57271133 689.639646 -173.72745392 689.08397949 -172.85658264 688.51147461 C-170.10534017 686.70167754 -167.35526729 684.89011513 -164.60546875 683.078125 C-163.65880341 682.45472229 -162.71213806 681.83131958 -161.73678589 681.18902588 C-144.77745591 670.01568256 -127.91581949 658.70129272 -111.10351562 647.30810547 C-110.23238632 646.71827881 -109.36125702 646.12845215 -108.46372986 645.52075195 C-106.84304896 644.4230604 -105.22316756 643.32418707 -103.60426331 642.22387695 C-101.61112246 640.87364385 -99.6097429 639.53674375 -97.60546875 638.203125 C-96.69748535 637.58695313 -95.78950195 636.97078125 -94.85400391 636.3359375 C-92.26664846 635.03242727 -91.10627038 634.98173525 -88.28125 635.4609375 C-87.43667236 635.59056885 -86.59209473 635.7202002 -85.72192383 635.85375977 C-84.79661865 636.01030029 -83.87131348 636.16684082 -82.91796875 636.328125 C-80.82510816 636.63758634 -78.73128569 636.9405883 -76.63671875 637.23828125 C-75.50234375 637.3995752 -74.36796875 637.56086914 -73.19921875 637.72705078 C-53.13773808 640.38465182 -32.86919546 641.46251684 -12.66796875 642.390625 C-11.75487946 642.43341583 -10.84179016 642.47620667 -9.90103149 642.52029419 C49.23512133 645.24021715 108.5960758 638.22779655 162.39453125 612.203125 C163.06162109 611.88666016 163.72871094 611.57019531 164.41601562 611.24414062 C204.84418448 592.0241915 240.61576989 563.11638785 267.39453125 527.203125 C267.86713379 526.57631836 268.33973633 525.94951172 268.82666016 525.30371094 C297.89222509 486.50433578 314.1827284 440.82486446 321.39453125 393.203125 C321.52730469 392.36136719 321.66007813 391.51960938 321.796875 390.65234375 C325.72524596 364.742751 325.14409281 335.91230878 320.39453125 310.203125 C320.21760742 309.24067871 320.04068359 308.27823242 319.85839844 307.28662109 C317.32501916 293.94371933 313.82548666 281.033885 309.39453125 268.203125 C309.17748535 267.55424316 308.96043945 266.90536133 308.73681641 266.23681641 C298.12081771 234.6662561 280.36484647 205.88319119 259.39453125 180.203125 C258.96688477 179.67106445 258.53923828 179.13900391 258.09863281 178.59082031 C251.33978755 170.21517331 243.91507378 162.51762766 236.33203125 154.890625 C234.96727661 153.51197266 234.96727661 153.51197266 233.57495117 152.10546875 C227.48741042 146.04583994 221.1166863 140.54366681 214.39453125 135.203125 C213.11649259 134.15477355 211.84019646 133.10429065 210.56640625 132.05078125 C164.6285952 94.48619523 107.24616057 70.28025841 48.39453125 63.203125 C47.63744873 63.10741211 46.88036621 63.01169922 46.1003418 62.91308594 C36.30074454 61.83952645 26.42790791 61.95925161 16.58203125 61.953125 C15.60644257 61.95245026 14.63085388 61.95177551 13.6257019 61.95108032 C-3.29955477 61.96959338 -19.83048046 62.79461358 -36.60546875 65.203125 Z " fill="#050505" transform="translate(380.60546875,-0.203125)"/>
<path d="M0 0 C4.64291124 2.92020209 8.58554231 6.16976917 12.5625 9.9375 C13.50730225 10.82755737 13.50730225 10.82755737 14.47119141 11.7355957 C20.34627399 17.3105275 26.12332474 22.9856492 31.875 28.6875 C33.17546265 29.96838501 33.17546265 29.96838501 34.50219727 31.27514648 C40.4368192 37.20182153 45.77639276 43.44372284 51 50 C52.00065009 51.20843286 53.00409271 52.41456522 54.01171875 53.6171875 C107.22472935 117.99860124 131.64787223 202.26476124 124.22631836 285.07836914 C118.22367144 340.33692632 97.34436648 392.98147766 65 438 C64.4946875 438.70495605 63.989375 439.40991211 63.46875 440.13623047 C56.18130224 450.23475427 48.34909207 459.76335955 40 469 C39.40815918 469.65500488 38.81631836 470.31000977 38.20654297 470.98486328 C26.04259911 484.36552512 13.18076776 496.76313654 -1 508 C-2.22100049 508.9884129 -3.4409882 509.97807774 -4.66015625 510.96875 C-24.44165365 527 -24.44165365 527 -28 527 C-28 584.42 -28 641.84 -28 701 C-34.74397057 698.75200981 -34.74397057 698.75200981 -37.93359375 696.671875 C-38.65272949 696.20918213 -39.37186523 695.74648926 -40.11279297 695.26977539 C-40.87994629 694.76824951 -41.64709961 694.26672363 -42.4375 693.75 C-44.13559907 692.65841248 -45.83486967 691.5686458 -47.53515625 690.48046875 C-48.42605957 689.90989746 -49.31696289 689.33932617 -50.23486328 688.75146484 C-54.9090774 685.79077157 -59.64196911 682.92788089 -64.375 680.0625 C-72.56758156 675.09470142 -80.7331732 670.08669209 -88.87451172 665.03540039 C-95.90615003 660.67363035 -102.95113988 656.33387717 -110 652 C-118.68503345 646.65936013 -127.36115806 641.30475366 -136.02734375 635.93359375 C-143.00954255 631.60824381 -150.00361712 627.30236163 -157 623 C-165.21486113 617.94801197 -173.42517495 612.88886228 -181.625 607.8125 C-182.45902344 607.29623047 -183.29304688 606.77996094 -184.15234375 606.24804688 C-184.93996094 605.76013672 -185.72757813 605.27222656 -186.5390625 604.76953125 C-187.29864258 604.3101416 -188.05822266 603.85075195 -188.84082031 603.37744141 C-191 602 -191 602 -192.90136719 600.49365234 C-198.13429014 596.52596663 -202.15629456 596.72527562 -208.56054688 597.5078125 C-209.69556641 597.67023437 -210.83058594 597.83265625 -212 598 C-214.19221984 598.24401263 -216.38493409 598.4836253 -218.578125 598.71875 C-221.90052836 599.10435133 -225.22201437 599.49664704 -228.54296875 599.89453125 C-243.27745382 601.59664796 -257.98782766 602.21183445 -272.8125 602.1875 C-273.56423492 602.18656342 -274.31596985 602.18562683 -275.09048462 602.18466187 C-326.81328408 602.04671628 -378.28857399 592.94398676 -425 570 C-425.96760254 569.52578613 -426.93520508 569.05157227 -427.93212891 568.56298828 C-449.03733178 558.11886685 -468.68389489 546.10315808 -487.13623047 531.46679688 C-488.87831629 530.09576575 -490.63738549 528.75288063 -492.41015625 527.421875 C-504.54119869 518.30490338 -515.79630739 508.23892928 -526.83374023 497.83813477 C-530.73041337 494.16696234 -534.68274305 490.58800639 -538.77734375 487.13671875 C-539.18082031 486.76160156 -539.58429688 486.38648438 -540 486 C-540 485.67 -540 485.34 -540 485 C-539.28321579 485.00222061 -538.56643158 485.00444122 -537.82792664 485.00672913 C-530.93447047 485.0271138 -524.04101903 485.04216264 -517.14754009 485.05181217 C-513.60705424 485.05694043 -510.0665941 485.06384437 -506.52612305 485.07543945 C-503.1011567 485.0865755 -499.67621524 485.0922595 -496.25123215 485.09475708 C-494.88011669 485.09669425 -493.50900263 485.10050723 -492.13789749 485.10617065 C-484.8790454 485.134666 -477.67713283 485.03272814 -470.43310547 484.47851562 C-456.43311795 483.4350799 -447.82789566 483.19131684 -436.75 492.375 C-435.62039533 493.22613407 -434.48525995 494.06997287 -433.3449707 494.90673828 C-431.1489304 496.5264147 -428.98610304 498.1711007 -426.82861328 499.84375 C-423.4125523 502.44781099 -419.90309095 504.72876286 -416.1875 506.875 C-414.49947266 507.85919922 -414.49947266 507.85919922 -412.77734375 508.86328125 C-411.51895117 509.5767957 -410.25975882 510.28890052 -409 511 C-408.19320801 511.46067871 -407.38641602 511.92135742 -406.55517578 512.39599609 C-380.53517236 527.19335984 -353.54496685 537.75751588 -324 543 C-322.64213379 543.2477417 -322.64213379 543.2477417 -321.25683594 543.50048828 C-283.40160421 550.03961102 -241.79934382 547.65219915 -204.2746582 540.18261719 C-203.40284912 540.01407227 -202.53104004 539.84552734 -201.6328125 539.671875 C-200.87887207 539.5181543 -200.12493164 539.36443359 -199.34814453 539.20605469 C-192.31438697 538.58882747 -188.08495116 541.56384085 -182.5546875 545.421875 C-181.31419647 546.26770142 -181.31419647 546.26770142 -180.04864502 547.13061523 C-178.25642555 548.35402709 -176.46739273 549.58211739 -174.68121338 550.81433105 C-169.87983134 554.12622679 -165.05547593 557.4044078 -160.234375 560.6875 C-159.23532135 561.36923279 -158.2362677 562.05096558 -157.2069397 562.75335693 C-145.34254155 570.83716794 -133.33986031 578.70937771 -121.33343506 586.57995605 C-119.53375096 587.75985602 -117.7344275 588.94030626 -115.93548584 590.12133789 C-114.31905747 591.18233762 -112.70169969 592.24192389 -111.08306885 593.29956055 C-104.30562213 597.74690958 -97.6516964 602.36775459 -91 607 C-91.0611499 605.03920753 -91.0611499 605.03920753 -91.12353516 603.0388031 C-91.4934054 590.667824 -91.73447913 578.29999784 -91.8523407 565.92397976 C-91.91699815 559.56149433 -92.02557331 553.20633352 -92.23779297 546.84692383 C-93.60820105 504.39066841 -93.60820105 504.39066841 -87.70855713 496.29629517 C-82.26909314 490.93353 -76.25194736 488.32141937 -69.03529358 486.10864258 C-64.00505326 484.27134465 -60.04913194 481.09789444 -55.875 477.8125 C-54.34053534 476.65533235 -52.80547502 475.49895367 -51.26953125 474.34375 C-44.97348996 469.46139338 -38.92954385 464.31885386 -33 459 C-32.2258374 458.31043213 -32.2258374 458.31043213 -31.43603516 457.60693359 C-20.06341666 447.45190935 -9.46483531 436.97396951 0 425 C0.91942984 423.89119706 1.84143793 422.78452842 2.765625 421.6796875 C45.693824 369.96085249 66.98993219 302.01885001 61.5 235.10546875 C57.21292696 191.22296313 42.14041116 148.33366842 17 112 C16.40106934 111.12939941 16.40106934 111.12939941 15.79003906 110.24121094 C7.10467068 97.54382566 7.10467068 97.54382566 -3 86 C-2.95976826 84.37216183 -2.83795946 82.74636907 -2.6875 81.125 C-2.58824219 80.03832031 -2.48898437 78.95164062 -2.38671875 77.83203125 C-2.02971042 74.29440324 -1.64936803 70.76025859 -1.26245117 67.22583008 C1.1878773 44.694205 1.32217232 22.6185908 0 0 Z " fill="#050505" transform="translate(825,279)"/>
<path d="M0 0 C4.28899651 2.73450024 7.95952089 5.78358224 11.37109375 9.57421875 C12.63953125 10.96640625 12.63953125 10.96640625 13.93359375 12.38671875 C21.61022691 21.89226764 24.57329562 34.53526767 23.37109375 46.57421875 C21.60116656 58.54913157 16.02190165 70.00115018 6.37109375 77.57421875 C-5.23278067 85.72203074 -16.99242315 88.66886629 -31.12890625 87.01171875 C-44.00812053 84.67284113 -54.44788096 77.41004715 -62.50390625 67.19921875 C-69.59227197 56.44098992 -71.34432119 42.61631556 -68.98046875 30.15625 C-65.50201639 17.71409349 -59.00883648 7.40105856 -47.69921875 0.88671875 C-32.29129615 -7.10542065 -15.60326756 -8.46239622 0 0 Z " fill="#060606" transform="translate(222.62890625,311.42578125)"/>
<path d="M0 0 C9.79651145 7.48676485 17.09623534 16.64515725 19.75 28.875 C20.98094713 43.58694055 19.49549063 55.67450072 10.75 67.875 C10.028125 68.885625 9.30625 69.89625 8.5625 70.9375 C0.58356224 80.0315067 -10.45158122 84.39456808 -22.25 85.75 C-35.3255694 86.39528784 -46.81913008 82.67348206 -57.1484375 74.61328125 C-65.77010373 66.57416004 -71.85691487 55.67914703 -72.62109375 43.74609375 C-72.98488095 30.6188252 -71.01785711 19.12463671 -62.11328125 8.828125 C-61.49839844 8.18359375 -60.88351562 7.5390625 -60.25 6.875 C-59.66605469 6.25109375 -59.08210938 5.6271875 -58.48046875 4.984375 C-43.00973563 -9.99780865 -17.81616244 -11.59421032 0 0 Z " fill="#050505" transform="translate(409.25,313.125)"/>
<path d="M0 0 C8.97080837 7.6030618 15.53021826 17.07178985 16.60595703 29.03027344 C17.55442564 44.40294389 14.47136203 55.98916586 4.75390625 68.11328125 C-3.78446104 77.63684477 -15.26029448 82.06834366 -27.76171875 82.93359375 C-40.56693727 83.24847617 -53.69576979 78.63389352 -63.125 69.6796875 C-74.01330836 57.26525506 -76.50279526 44.50606371 -75.79638672 28.50195312 C-74.76270881 16.98837154 -67.91866023 7.94092183 -59.76171875 0.27734375 C-42.3277959 -14.25654551 -17.66918728 -13.54012075 0 0 Z " fill="#060606" transform="translate(596.57421875,315.97265625)"/>
<path d="M0 0 C0.66 0 1.32 0 2 0 C1.67 0.99 1.34 1.98 1 3 C0.89996389 4.47184649 0.85388753 5.94770489 0.84178162 7.42289734 C0.8319928 8.32733582 0.82220398 9.23177429 0.81211853 10.16362 C0.80636307 11.15336319 0.8006076 12.14310638 0.79467773 13.1628418 C0.78477814 14.20691193 0.77487854 15.25098206 0.76467896 16.32669067 C0.73304415 19.78417682 0.7082986 23.24167671 0.68359375 26.69921875 C0.66302594 29.09390117 0.64202952 31.48857995 0.62062073 33.883255 C0.56538222 40.19118297 0.51598074 46.4991438 0.46777344 52.80712891 C0.41757144 59.24189179 0.36187858 65.67660685 0.30664062 72.11132812 C0.19903727 84.74084431 0.09741071 97.3704013 0 110 C-0.99 110 -1.98 110 -3 110 C-2.505 109.01 -2.505 109.01 -2 108 C-1.89855777 106.57073411 -1.85790673 105.13691679 -1.84851074 103.7040863 C-1.84016708 102.80246765 -1.83182343 101.900849 -1.82322693 100.97190857 C-1.81904251 99.98014114 -1.81485809 98.98837372 -1.81054688 97.96655273 C-1.80225357 96.92423492 -1.79396027 95.88191711 -1.78541565 94.80801392 C-1.76798925 92.5397387 -1.75282957 90.27144521 -1.73963928 88.0031414 C-1.7186677 84.41953115 -1.69164162 80.83601298 -1.66296387 77.25245667 C-1.59301598 68.35275822 -1.53365205 59.45299457 -1.47393799 50.55322266 C-1.42310481 43.03560056 -1.36831226 35.5180281 -1.30812073 28.00047493 C-1.28144098 24.45894447 -1.26069103 20.91740966 -1.2401123 17.37583923 C-1.22351758 15.2185748 -1.20664648 13.06131248 -1.18945312 10.90405273 C-1.18526871 9.91026108 -1.18108429 8.91646942 -1.17677307 7.89256287 C-1.16842941 6.99376404 -1.16008575 6.09496521 -1.15148926 5.16893005 C-1.14633553 4.38339469 -1.14118179 3.59785933 -1.13587189 2.78851986 C-1 1 -1 1 0 0 Z " fill="#666666" transform="translate(736,778)"/>
<path d="M0 0 C0.66 0.33 1.32 0.66 2 1 C-7.9 10.9 -17.8 20.8 -28 31 C-28.66 30.67 -29.32 30.34 -30 30 C-13.69173811 12.19212783 -13.69173811 12.19212783 -4.796875 4.578125 C-3.12659942 3.11118731 -1.55211328 1.59043707 0 0 Z " fill="#696969" transform="translate(116,101)"/>
<path d="M0 0 C0.66 0.33 1.32 0.66 2 1 C-2.62 5.62 -7.24 10.24 -12 15 C-12 10.09687565 -8.29800369 7.38658643 -5 4 C-3.37458956 2.61667196 -1.72614587 1.25537882 0 0 Z " fill="#646464" transform="translate(357,313)"/>
<path d="M0 0 C0.66 0.33 1.32 0.66 2 1 C-0.97 3.97 -3.94 6.94 -7 10 C-7.66 9.67 -8.32 9.34 -9 9 C-6.21000549 5.51250686 -3.74764169 2.49842779 0 0 Z " fill="#686868" transform="translate(172,314)"/>
</svg>
